{
	"asset":{
		"generator":"Khronos glTF Blender I/O v3.5.30",
		"version":"2.0"
	},
	"scene":0,
	"scenes":[
		{
			"name":"Scene",
			"nodes":[
				4
			]
		}
	],
	"nodes":[
		{
			"mesh":0,
			"name":"LP_concha_0",
			"scale":[
				1.6238070726394653,
				1.6238073110580444,
				1.6238073110580444
			]
		},
		{
			"children":[
				0
			],
			"name":"LP",
			"rotation":[
				0,
				-0.70710688829422,
				-0.7071066498756409,
				3.090861255827804e-08
			],
			"scale":[
				99.99999237060547,
				100,
				100
			]
		},
		{
			"children":[
				1
			],
			"name":"RootNode.002"
		},
		{
			"children":[
				2
			],
			"name":"conchas.fbx",
			"rotation":[
				0.70710688829422,
				0,
				0,
				0.7071066498756409
			],
			"scale":[
				0.009999999776482582,
				0.010000000707805157,
				0.010000000707805157
			]
		},
		{
			"children":[
				3
			],
			"name":"Sketchfab_model.002",
			"rotation":[
				-0.70710688829422,
				0,
				0,
				0.7071066498756409
			],
			"scale":[
				9.108184814453125,
				9.108185768127441,
				9.108185768127441
			],
			"translation":[
				-1.1516252756118774,
				0,
				0
			]
		}
	],
	"materials":[
		{
			"doubleSided":true,
			"name":"concha",
			"normalTexture":{
				"index":0
			},
			"pbrMetallicRoughness":{
				"baseColorTexture":{
					"index":1
				},
				"metallicFactor":0,
				"roughnessFactor":0.8211145401000977
			}
		}
	],
	"meshes":[
		{
			"name":"LP_concha_0",
			"primitives":[
				{
					"attributes":{
						"POSITION":0,
						"TEXCOORD_0":1,
						"TEXCOORD_1":2,
						"NORMAL":3
					},
					"indices":4,
					"material":0
				}
			]
		}
	],
	"textures":[
		{
			"sampler":0,
			"source":0
		},
		{
			"sampler":0,
			"source":1
		}
	],
	"images":[
		{
			"bufferView":5,
			"mimeType":"image/png",
			"name":"concha_normal"
		},
		{
			"bufferView":6,
			"mimeType":"image/png",
			"name":"concha_baseColor"
		}
	],
	"accessors":[
		{
			"bufferView":0,
			"componentType":5126,
			"count":186,
			"max":[
				0.05057647079229355,
				0.00122897292021662,
				0.048033226281404495
			],
			"min":[
				-0.05057647079229355,
				-0.006173068657517433,
				-0.04781094565987587
			],
			"type":"VEC3"
		},
		{
			"bufferView":1,
			"componentType":5126,
			"count":186,
			"type":"VEC2"
		},
		{
			"bufferView":2,
			"componentType":5126,
			"count":186,
			"type":"VEC2"
		},
		{
			"bufferView":3,
			"componentType":5126,
			"count":186,
			"type":"VEC3"
		},
		{
			"bufferView":4,
			"componentType":5123,
			"count":1104,
			"type":"SCALAR"
		}
	],
	"bufferViews":[
		{
			"buffer":0,
			"byteLength":2232,
			"byteOffset":0,
			"target":34962
		},
		{
			"buffer":0,
			"byteLength":1488,
			"byteOffset":2232,
			"target":34962
		},
		{
			"buffer":0,
			"byteLength":1488,
			"byteOffset":3720,
			"target":34962
		},
		{
			"buffer":0,
			"byteLength":2232,
			"byteOffset":5208,
			"target":34962
		},
		{
			"buffer":0,
			"byteLength":2208,
			"byteOffset":7440,
			"target":34963
		},
		{
			"buffer":0,
			"byteLength":334096,
			"byteOffset":9648
		},
		{
			"buffer":0,
			"byteLength":76377,
			"byteOffset":343744
		}
	],
	"samplers":[
		{
			"magFilter":9729,
			"minFilter":9987
		}
	],
	"buffers":[
		{
			"byteLength":420124,
			"uri":"data:application/octet-stream;base64,"
		}
	]
}
